<?xml version="1.0" standalone="no"?>
<!DOCTYPE svg PUBLIC "-//W3C//DTD SVG 20010904//EN"
 "http://www.w3.org/TR/2001/REC-SVG-20010904/DTD/svg10.dtd">
<svg version="1.0" xmlns="http://www.w3.org/2000/svg"
 width="512.000000pt" height="512.000000pt" viewBox="0 0 512.000000 512.000000"
 preserveAspectRatio="xMidYMid meet">
<metadata>
Created by potrace 1.15, written by Peter Selinger 2001-2017
</metadata>
<g transform="translate(0.000000,512.000000) scale(0.100000,-0.100000)"
fill="#000000" stroke="none">
<path d="M2544 4658 c-4 -6 -22 -39 -39 -72 -18 -34 -46 -86 -62 -116 -17 -30
-52 -95 -78 -145 -27 -49 -57 -106 -68 -125 -21 -36 -55 -99 -127 -235 -23
-44 -55 -102 -70 -130 -42 -75 -83 -153 -121 -225 -18 -36 -36 -67 -39 -70 -3
-3 -18 -30 -33 -60 -26 -52 -79 -152 -124 -230 -11 -19 -42 -78 -69 -130 -27
-52 -51 -97 -54 -100 -3 -3 -20 -34 -39 -70 -18 -36 -46 -87 -61 -115 -15 -27
-49 -90 -75 -140 -26 -49 -59 -110 -73 -135 -14 -25 -40 -72 -57 -105 -18 -33
-43 -80 -57 -105 -14 -25 -45 -81 -68 -125 -69 -129 -121 -227 -146 -272 -13
-24 -35 -62 -48 -85 -13 -24 -45 -83 -71 -133 -73 -137 -110 -206 -189 -347
-13 -24 -45 -83 -71 -133 -59 -111 -110 -206 -143 -265 -33 -59 -85 -156 -134
-250 -22 -41 -52 -97 -68 -125 -67 -121 -78 -143 -73 -149 4 -3 126 -6 273 -6
302 0 274 -8 325 90 16 30 37 71 48 90 11 19 43 80 72 135 29 55 63 120 77
145 14 25 44 80 67 123 22 42 60 112 82 155 23 42 52 96 65 120 57 102 73 131
106 192 19 36 57 106 83 155 26 50 59 110 73 135 14 25 39 72 57 105 51 97
104 195 148 275 64 116 136 251 155 290 9 19 19 37 22 40 3 3 23 39 44 80 22
41 48 91 59 110 11 19 43 78 70 130 27 52 60 114 73 138 65 116 114 206 189
347 26 50 59 110 73 135 14 25 42 76 62 114 20 39 41 71 47 73 6 2 17 -9 25
-24 26 -50 146 -273 258 -478 15 -27 45 -84 67 -125 22 -41 55 -102 73 -135
80 -147 100 -185 142 -265 42 -80 77 -143 136 -250 14 -25 42 -76 62 -115 89
-166 108 -202 132 -245 14 -25 50 -92 80 -150 56 -106 99 -185 135 -250 11
-19 37 -69 59 -110 21 -41 41 -77 44 -80 3 -3 16 -27 29 -55 14 -27 30 -57 36
-65 7 -8 36 -60 65 -115 69 -132 112 -211 140 -260 23 -41 49 -91 93 -180 36
-74 87 -166 108 -197 11 -14 19 -30 19 -35 0 -6 8 -17 18 -26 16 -15 51 -17
285 -17 150 0 268 4 271 9 4 5 3 11 -1 13 -5 1 -20 28 -36 58 -32 64 -98 187
-131 245 -30 50 -71 126 -139 257 -58 111 -109 205 -137 253 -10 17 -46 84
-80 150 -35 66 -72 136 -83 155 -47 84 -67 120 -114 210 -47 88 -79 148 -141
260 -48 87 -85 156 -127 235 -40 75 -75 141 -133 245 -49 89 -85 156 -127 235
-23 44 -53 100 -67 125 -71 127 -126 231 -208 385 -29 55 -56 105 -60 110 -7
10 -82 150 -132 245 -13 25 -25 47 -28 50 -3 3 -17 30 -33 60 -15 30 -44 87
-66 125 -71 130 -98 180 -146 270 -27 50 -58 108 -70 130 -12 22 -39 72 -60
110 -21 39 -50 93 -65 120 -15 28 -40 74 -55 103 -27 53 -38 61 -51 40z"/>
</g>
</svg>
